<?xml version="1.0" encoding="UTF-8" standalone="no"?>
<svg xmlns="http://www.w3.org/2000/svg" xmlns:xlink="http://www.w3.org/1999/xlink" width="800" height="500">
	<g>
		<g transform="translate(0.000000, 75.000000)">
<rect
			y="175.000000"
			x="25.000000"
			height="100.000000"
			width="25.000000"
			style="fill:#ff0000;stroke:#000000;stroke-width:2.000000"/>
<path
		d="M 25,275 L 37.5,255 L 50,275"
		style="fill:none;stroke:#000000;stroke-width:2.000000" />
<text
			y="229.368164"
			x="29.425781"
			style="font-size:12.000000px;text-anchor:start;fill:#000000;stroke:none;stroke-width:1.000000"><tspan y="229.368164" x="29.425781">PC</tspan></text>
		</g>
		<g  transform="translate(-15.000000, 75.000000)">
<rect
			y="175.000000"
			x="100.000000"
			height="100.000000"
			width="75.000000"
			style="fill:#ff0000;stroke:#000000;stroke-width:2.000000"/>
<text
			y="228.125977"
			x="112.679688"
			style="font-size:12.000000px;text-anchor:start;fill:#000000;stroke:none;stroke-width:1.000000"><tspan y="228.125977" x="112.679688">Memory</tspan></text>
		</g>
<path
		d="M 100,100 L 130,115 L 130,155 L 100,170 L 100,140 L 110,135 L 100,130 L 100,100 z"
		style="fill:#ff0000;stroke:#000000;stroke-width:2.000000" />
<text
			y="90.000000"
			x="284.500000"
			style="font-size:12.000000px;text-anchor:middle;fill:none;stroke:#000000;stroke-width:1.000000"><tspan y="90.000000" x="284.500000"></tspan></text>
<text
			y="-116.750000"
			x="132.882812"
			style="font-size:12.000000px;text-anchor:middle;fill:#000000;stroke:none;stroke-width:1.000000"
 transform="matrix(0.000000, 1.000000, -1.000000, 0.000000, 0.000000, 0.000000)">
<tspan y="-116.750000" x="132.882812">Adder</tspan></text>
<rect
			y="155.100006"
			x="265.000000"
			height="94.900002"
			width="59.716309"
			style="fill:#00ff00;stroke:#000000;stroke-width:2.000000"/>
<text
			y="196.973633"
			x="294.275146"
			style="font-size:12.000000px;text-anchor:middle;fill:#000000;stroke:none;stroke-width:1.000000"><tspan y="196.973633" x="294.275146">Register</tspan>
			<tspan y="211.973633" x="294.275146">File</tspan></text>
<text
			y="235.000000"
			x="334.125000"
			style="font-size:12.000000px;text-anchor:start;fill:none;stroke:#000000;stroke-width:1.000000"><tspan y="235.000000" x="334.125000"></tspan></text>
		<g  transform="translate(-37.747002, 80.000000)">
<path transform="matrix(1.0016064,0,0,1,-20.52208,22.5)" d="M 375,237.5 A 25,37.5 0 1 1 325,237.5 A 25,37.5 0 1 1 375,237.5 z" style="fill:#00ff00;stroke:#000000;stroke-width:1.99839556" /><text
			y="256.973633"
			x="329.996216"
			style="font-size:12.000000px;text-anchor:middle;fill:#000000;stroke:none;stroke-width:1.000000"><tspan y="256.973633" x="329.996216">Sign</tspan>
			<tspan y="271.973633" x="329.996216">Extend</tspan></text>
		</g><path
		d="M 160,300 L 185,300"
		style="fill:#000000;stroke:#000000;stroke-width:2.000000" />
<path
		d="M 50,300 L 85,300"
		style="fill:none;stroke:#000000;stroke-width:2.000000" />
<path
		d="M 60,300 L 60,155 L 95,155"
		style="fill:none;stroke:#000000;stroke-width:2.000000" />
<path style="opacity:1;fill:#000000;fill-opacity:1;stroke:#000000;stroke-width:2.00000024" d="M -59.154329,230.76032 L -59.154329,234.76032 L -51.154329,232.76032 L -59.154329,230.76032" id="path2444" /><use x="0.000000" y="0.000000" xlink:href="#path2444" transform="translate(136.154327,67.239677)" width="600.000000" height="500.000000" /><use x="0.000000" y="0.000000" xlink:href="#path2444" transform="translate(151.154327,-77.760323)" width="600.000000" height="500.000000" />		<g  transform="translate(160.000000, -75.000000)">
<rect
			y="175.000000"
			x="25.000000"
			height="350.000000"
			width="25.000000"
			style="fill:#ffffff;stroke:#000000;stroke-width:2.000000"/>
<path
		d="M 25,525 L 37.5,505 L 50,525"
		style="fill:none;stroke:#000000;stroke-width:2.000000" />
<text
			y="-33.682617"
			x="349.762756"
			style="font-size:12.000000px;text-anchor:middle;fill:#000000;stroke:none;stroke-width:1.000000"
 transform="matrix(0.000000, 1.000000, -1.000000, 0.000000, 0.000000, 0.000000)">
<tspan y="-33.682617" x="349.762756">IF / ID</tspan></text>
		</g>
<use x="0.000000" y="0.000000" xlink:href="#path2444" transform="translate(236.154327,67.239677)" width="600.000000" height="500.000000" /><path
		d="M 210,300 L 225,300"
		style="fill:#000000;stroke:#000000;stroke-width:2.000000" />
<path
		d="M 260,165 L 225,165 L 225,339.99999 L 260,339.99999"
		style="fill:none;stroke:#000000;stroke-width:2.000000" />
<use x="0.000000" y="0.000000" xlink:href="#path2444" transform="translate(316.487640,107.239677)" width="600.000000" height="500.000000" /><use x="0.000000" y="0.000000" xlink:href="#path2444" transform="translate(316.154327,-67.760323)" width="600.000000" height="500.000000" /><path
		d="M 224.98369,190 L 259.98369,190"
		style="fill:none;stroke:#000000;stroke-width:2.000000" />
<use x="0.000000" y="0.000000" xlink:href="#path2444" transform="translate(316.154327,-42.760319)" width="600.000000" height="500.000000" />		<g  transform="translate(325.000000, -75.000000)">
<rect
			y="175.000000"
			x="25.000000"
			height="350.000000"
			width="25.000000"
			style="fill:#ffffff;stroke:#000000;stroke-width:2.000000"/>
<path
		d="M 25,525 L 37.5,505 L 50,525"
		style="fill:none;stroke:#000000;stroke-width:2.000000" />
<text
			y="-33.682617"
			x="349.601624"
			style="font-size:12.000000px;text-anchor:middle;fill:#000000;stroke:none;stroke-width:1.000000"
 transform="matrix(0.000000, 1.000000, -1.000000, 0.000000, 0.000000, 0.000000)">
<tspan y="-33.682617" x="349.601624">ID / EX</tspan></text>
		</g>
<use x="0.000000" y="0.000000" xlink:href="#path2444" transform="translate(276.154327,67.239677)" width="600.000000" height="500.000000" /><text
			y="335.000000"
			x="320.000000"
			style="font-size:12.000000px;text-anchor:start;fill:#000000;stroke:none;stroke-width:1.000000"><tspan y="335.000000" x="320.000000">Imm</tspan></text>
<path
		d="M 324.57143,200 L 335,200 L 335,280 L 350,280"
		style="fill:none;stroke:#000000;stroke-width:2.000000" />
<use x="0.000000" y="0.000000" xlink:href="#path2444" transform="translate(401.154327,47.239681)" width="600.000000" height="500.000000" /><text
			y="160.000000"
			x="230.000000"
			style="font-size:12.000000px;text-anchor:start;fill:#000000;stroke:none;stroke-width:1.000000"><tspan y="160.000000" x="230.000000">RS1</tspan></text>
<text
			y="185.000000"
			x="230.000000"
			style="font-size:12.000000px;text-anchor:start;fill:#000000;stroke:none;stroke-width:1.000000"><tspan y="185.000000" x="230.000000">RS2</tspan></text>
<path style="fill:#000000;fill-opacity:1;stroke:#000000;stroke-width:2" d="M 235,82.5 A 2.5,2.5 0 1 1 230,82.5 A 2.5,2.5 0 1 1 235,82.5 z" transform="translate(-7.500002,107.5)" /><path style="fill:#000000;fill-opacity:1;stroke:#000000;stroke-width:2" d="M 235,82.5 A 2.5,2.5 0 1 1 230,82.5 A 2.5,2.5 0 1 1 235,82.5 z" transform="translate(-172.5,217.5)" /><path
		d="M 315,340 L 345,340"
		style="fill:#000000;stroke:#000000;stroke-width:2.000000" />
<use x="0.000000" y="0.000000" xlink:href="#path2444" transform="translate(401.487640,107.239677)" width="600.000000" height="500.000000" /><g  transform="translate(-20.000000, 70.000000)">
<rect
			y="110.000000"
			x="440.000000"
			height="30.000000"
			width="40.000000"
			style="fill:#ffff00;stroke:#000000;stroke-width:2.000000"/>
<text
			y="129.368164"
			x="460.485687"
			style="font-size:12.000000px;text-anchor:middle;fill:#000000;stroke:none;stroke-width:1.000000"><tspan y="129.368164" x="460.485687">Zero?</tspan></text>
</g>
<path
		d="M 445,280 L 485,300 L 485,350 L 445,370 L 445,340 L 455,335 L 455,315 L 445,310 L 445,280 z"
		style="fill:#ffff00;stroke:#000000;stroke-width:2.000000" />
<text
			y="329.289062"
			x="470.335938"
			style="font-size:12.000000px;text-anchor:middle;fill:#000000;stroke:none;stroke-width:1.000000"><tspan y="329.289062" x="470.335938">ALU</tspan></text>
<g  transform="translate(-59.250004, 106.000000)">
<path
		d="M 469.25,164 L 469.25,214 L 489.25,204 L 489.25,174 L 469.25,164 z"
		style="fill:#ffff00;stroke:#000000;stroke-width:2.000000" />
<text
			y="-475.000000"
			x="188.687500"
			style="font-size:12.000000px;text-anchor:middle;fill:#000000;stroke:none;stroke-width:1.000000"
 transform="matrix(0.000000, 1.000000, -1.000000, 0.000000, 0.000000, 0.000000)">
<tspan y="-475.000000" x="188.687500">MUX</tspan></text>
</g>
<path
		d="M 430.4,295 L 445.4,295"
		style="fill:none;stroke:#000000;stroke-width:2.000000" />
<use x="0.000000" y="0.000000" xlink:href="#path2444" transform="translate(496.154327,62.239681)" width="600.000000" height="500.000000" /><g  transform="translate(490.000000, -70.000153)">
<rect
			y="175.000000"
			x="25.000000"
			height="350.000000"
			width="25.000000"
			style="fill:#ffffff;stroke:#000000;stroke-width:2.000000"/>
<path
		d="M 25,525 L 37.5,505 L 50,525"
		style="fill:none;stroke:#000000;stroke-width:2.000000" />
<text
			y="-33.682617"
			x="350.000061"
			style="font-size:12.000000px;text-anchor:middle;fill:#000000;stroke:none;stroke-width:1.000000"
 transform="matrix(0.000000, 1.000000, -1.000000, 0.000000, 0.000000, 0.000000)">
<tspan y="-33.682617" x="350.000061">EX / MEM</tspan></text>
</g>
<path
		d="M 485,325 L 510,325"
		style="fill:none;stroke:#000000;stroke-width:2.000000" />
<use x="0.000000" y="0.000000" xlink:href="#path2444" transform="translate(566.154358,92.239677)" width="600.000000" height="500.000000" /><g  transform="translate(475.000000, 125.000000)">
<rect
			y="175.000000"
			x="100.000000"
			height="100.000000"
			width="75.000000"
			style="fill:#ffffff;stroke:#000000;stroke-width:2.000000"/>
<text
			y="228.125977"
			x="112.679688"
			style="font-size:12.000000px;text-anchor:start;fill:#000000;stroke:none;stroke-width:1.000000"><tspan y="228.125977" x="112.679688">Memory</tspan></text>
</g>
<g  transform="translate(265.750000, 121.000000)">
<path
		d="M 469.25,164 L 469.25,214 L 489.25,204 L 489.25,174 L 469.25,164 z"
		style="fill:#ffffff;stroke:#000000;stroke-width:2.000000" />
<text
			y="-475.000000"
			x="188.687500"
			style="font-size:12.000000px;text-anchor:middle;fill:#000000;stroke:none;stroke-width:1.000000"
 transform="matrix(0.000000, 1.000000, -1.000000, 0.000000, 0.000000, 0.000000)">
<tspan y="-475.000000" x="188.687500">MUX</tspan></text>
</g>
<g  transform="translate(655.000000, -75.000153)">
<rect
			y="175.000000"
			x="25.000000"
			height="350.000000"
			width="25.000000"
			style="fill:#ffffff;stroke:#000000;stroke-width:2.000000"/>
<path
		d="M 25,525 L 37.5,505 L 50,525"
		style="fill:none;stroke:#000000;stroke-width:2.000000" />
<text
			y="-33.682617"
			x="350.000061"
			style="font-size:12.000000px;text-anchor:middle;fill:#000000;stroke:none;stroke-width:1.000000"
 transform="matrix(0.000000, 1.000000, -1.000000, 0.000000, 0.000000, 0.000000)">
<tspan y="-33.682617" x="350.000061">MEM / WB</tspan></text>
</g>
<g  transform="translate(130.750000, -39.000000)">
<path
		d="M 469.25,164 L 469.25,214 L 489.25,204 L 489.25,174 L 469.25,164 z"
		style="fill:#ffffff;stroke:#000000;stroke-width:2.000000" />
<text
			y="-475.000000"
			x="188.687500"
			style="font-size:12.000000px;text-anchor:middle;fill:#000000;stroke:none;stroke-width:1.000000"
 transform="matrix(0.000000, 1.000000, -1.000000, 0.000000, 0.000000, 0.000000)">
<tspan y="-475.000000" x="188.687500">MUX</tspan></text>
</g>
<use x="0.000000" y="0.000000" xlink:href="#path2444" transform="translate(461.154327,47.239685)" width="600.000000" height="500.000000" /><path
		d="M 375,280 L 405,280"
		style="fill:none;stroke:#000000;stroke-width:2.000000" />
<use x="0.000000" y="0.000000" xlink:href="#path2444" transform="translate(461.154327,77.239677)" width="600.000000" height="500.000000" /><path
		d="M 210,110 L 350,110"
		style="fill:none;stroke:#000000;stroke-width:2.000000" />
<path
		d="M 374.9,110 L 509.9,110"
		style="fill:none;stroke:#000000;stroke-width:2.000000" />
<use x="0.000000" y="0.000000" xlink:href="#path2444" transform="translate(566.154358,-122.760323)" width="600.000000" height="500.000000" /><path
		d="M 405,310 L 385,310 L 385,110"
		style="fill:none;stroke:#000000;stroke-width:2.000000" />
<path
		d="M 395,280.00001 L 395,194.97602 L 415,195"
		style="fill:none;stroke:#000000;stroke-width:2.000000" />
<path style="opacity:1;fill:#000000;fill-opacity:1;stroke:#000000;stroke-width:2" d="M 235,82.5 A 2.5,2.5 0 1 1 230,82.5 A 2.5,2.5 0 1 1 235,82.5 z" transform="translate(162.5,197.5)" /><path style="opacity:1;fill:#000000;fill-opacity:1;stroke:#000000;stroke-width:2" d="M 235,82.5 A 2.5,2.5 0 1 1 230,82.5 A 2.5,2.5 0 1 1 235,82.5 z" transform="translate(152.5,27.5)" /><use x="0.000000" y="0.000000" xlink:href="#path2444" transform="translate(401.154327,-122.760323)" width="600.000000" height="500.000000" /><g  transform="translate(-59.250008, 166.000000)">
<path
		d="M 469.25,164 L 469.25,214 L 489.25,204 L 489.25,174 L 469.25,164 z"
		style="fill:#ffff00;stroke:#000000;stroke-width:2.000000" />
<text
			y="-475.000000"
			x="188.687500"
			style="font-size:12.000000px;text-anchor:middle;fill:#000000;stroke:none;stroke-width:1.000000"
 transform="matrix(0.000000, 1.000000, -1.000000, 0.000000, 0.000000, 0.000000)">
<tspan y="-475.000000" x="188.687500">MUX</tspan></text>
</g>
<path
		d="M 430.4,355 L 445.4,355"
		style="fill:none;stroke:#000000;stroke-width:2.000000" />
<use x="0.000000" y="0.000000" xlink:href="#path2444" transform="translate(496.154327,122.239677)" width="600.000000" height="500.000000" /><path
		d="M 410,370 L 375,370"
		style="fill:none;stroke:#000000;stroke-width:2.000000" />
<path
		d="M 390,369.99999 L 390,400.04543 L 495,400 L 495,375 L 515,375"
		style="fill:none;stroke:#000000;stroke-width:2.000000" />
<path
		d="M 375,340 L 405,340"
		style="fill:none;stroke:#000000;stroke-width:2.000000" />
<use x="0.000000" y="0.000000" xlink:href="#path2444" transform="translate(461.154327,107.239677)" width="600.000000" height="500.000000" /><use x="0.000000" y="0.000000" xlink:href="#path2444" transform="translate(461.154327,137.239685)" width="600.000000" height="500.000000" /><path style="opacity:1;fill:#000000;fill-opacity:1;stroke:#000000;stroke-width:2" d="M 235,82.5 A 2.5,2.5 0 1 1 230,82.5 A 2.5,2.5 0 1 1 235,82.5 z" transform="translate(157.5,287.5)" /><path
		d="M 459.42859,195 L 514.42859,195"
		style="fill:none;stroke:#000000;stroke-width:2.000000" />
<use x="0.000000" y="0.000000" xlink:href="#path2444" transform="translate(566.154358,-37.760319)" width="600.000000" height="500.000000" /><use x="0.000000" y="0.000000" xlink:href="#path2444" transform="translate(471.154327,-37.760319)" width="600.000000" height="500.000000" /><path
		d="M 540,325 L 570,325"
		style="fill:none;stroke:#000000;stroke-width:2.000000" />
<use x="0.000000" y="0.000000" xlink:href="#path2444" transform="translate(626.154358,92.239685)" width="600.000000" height="500.000000" /><path
		d="M 540,375 L 550,375 L 570,375"
		style="fill:none;stroke:#000000;stroke-width:2.000000" />
<use x="0.000000" y="0.000000" xlink:href="#path2444" transform="translate(626.154358,142.239685)" width="600.000000" height="500.000000" /><path
		d="M 600,165 L 555,165 L 555,325"
		style="fill:none;stroke:#000000;stroke-width:2.000000" />
<path style="opacity:1;fill:#000000;fill-opacity:1;stroke:#000000;stroke-width:2" d="M 235,82.5 A 2.5,2.5 0 1 1 230,82.5 A 2.5,2.5 0 1 1 235,82.5 z" transform="translate(322.5,242.5)" /><use x="0.000000" y="0.000000" xlink:href="#path2444" transform="translate(731.154358,37.239681)" width="600.000000" height="500.000000" /><use x="0.000000" y="0.000000" xlink:href="#path2444" transform="translate(651.154358,-67.760323)" width="600.000000" height="500.000000" /><path
		d="M 540,110 L 560,110 L 560,135 L 600,135"
		style="fill:none;stroke:#000000;stroke-width:2.000000" />
<use x="0.000000" y="0.000000" xlink:href="#path2444" transform="translate(651.154358,-97.760323)" width="600.000000" height="500.000000" /><path
		d="M 650.44,350 L 675.24,350"
		style="fill:none;stroke:#000000;stroke-width:2.000000" />
<use x="0.000000" y="0.000000" xlink:href="#path2444" transform="translate(731.154358,117.239677)" width="600.000000" height="500.000000" /><path
		d="M 705,270 L 720,270 L 720,295 L 735,295"
		style="fill:none;stroke:#000000;stroke-width:2.000000" />
<path
		d="M 735,325 L 720,325 L 720,350 L 705,350"
		style="fill:none;stroke:#000000;stroke-width:2.000000" />
<use x="0.000000" y="0.000000" xlink:href="#path2444" transform="translate(786.154358,92.239677)" width="600.000000" height="500.000000" /><use x="0.000000" y="0.000000" xlink:href="#path2444" transform="translate(786.154358,62.239681)" width="600.000000" height="500.000000" /><use x="0.000000" y="0.000000" xlink:href="#path2444" transform="translate(566.154358,142.239685)" width="600.000000" height="500.000000" /><path
		d="M 540,195 L 610,195 L 610,170"
		style="fill:none;stroke:#000000;stroke-width:2.000000" />
<use x="0.000000" y="0.000000" xlink:href="#path2444" transform="translate(566.154358,142.239685)" width="600.000000" height="500.000000" /><path
		d="M 540,195 L 610,195 L 610,170"
		style="fill:none;stroke:#000000;stroke-width:2.000000" />
<path
		d="M 540,195 L 610,195 L 610,170"
		style="fill:none;stroke:#000000;stroke-width:2.000000" />
<use x="0.000000" y="0.000000" xlink:href="#path2444" transform="matrix(0.000000,-1.000000,1.000000,0.000000,377.239685,118.845673)" width="600.000000" height="500.000000" /><path
		d="M 755,310 L 780,310 L 780,475 L 235,475 L 235,215 L 265,215"
		style="fill:none;stroke:#000000;stroke-width:2.000000" />
<path
		d="M 265,240 L 245,240 L 245,460 L 725,460 L 725,425 L 705,425"
		style="fill:none;stroke:#000000;stroke-width:2.000000" />
<use x="0.000000" y="0.000000" xlink:href="#path2444" transform="translate(316.154327,-17.760321)" width="600.000000" height="500.000000" /><use x="0.000000" y="0.000000" xlink:href="#path2444" transform="translate(316.154327,7.239680)" width="600.000000" height="500.000000" /><path
		d="M 620,150 L 640,150 L 640,90 L 10,90 L 10,300 L 25,300"
		style="fill:none;stroke:#000000;stroke-width:2.000000" />
<use x="0.000000" y="0.000000" xlink:href="#path2444" transform="translate(76.154327,67.239677)" width="600.000000" height="500.000000" /><path
		d="M 130,135 L 155,135 L 155,110 L 185,110"
		style="fill:none;stroke:#000000;stroke-width:2.000000" />
<use x="0.000000" y="0.000000" xlink:href="#path2444" transform="translate(236.154327,-122.760323)" width="600.000000" height="500.000000" /><text
			y="123.500000"
			x="278.050781"
			style="font-size:12.000000px;text-anchor:middle;fill:#000000;stroke:none;stroke-width:1.000000"><tspan y="123.500000" x="278.050781">Next SEQ PC</tspan></text>
<text
			y="123.500000"
			x="443.050781"
			style="font-size:12.000000px;text-anchor:middle;fill:#000000;stroke:none;stroke-width:1.000000"><tspan y="123.500000" x="443.050781">Next SEQ PC</tspan></text>
<text
			y="490.000000"
			x="741.285156"
			style="font-size:12.000000px;text-anchor:middle;fill:#000000;stroke:none;stroke-width:1.000000"><tspan y="490.000000" x="741.285156">WB Data</tspan></text>
<text
			y="180.000000"
			x="465.000000"
			style="font-size:12.000000px;text-anchor:start;fill:#000000;stroke:none;stroke-width:1.000000"><tspan y="180.000000" x="465.000000">Branch</tspan>
			<tspan y="192.000000" x="465.000000">taken</tspan></text>
<text
			y="295.000000"
			x="165.000000"
			style="font-size:12.000000px;text-anchor:start;fill:#000000;stroke:none;stroke-width:1.000000"><tspan y="295.000000" x="165.000000">IR</tspan></text>
<text
			y="27.167969"
			x="108.062500"
			style="font-size:16.000000px;text-anchor:middle;fill:#000000;stroke:none;stroke-width:1.000000"><tspan y="27.167969" x="108.062500">Instruction Fetch</tspan></text>
<text
			y="102.000000"
			x="612.062500"
			style="font-size:12.000000px;text-anchor:middle;fill:#000000;stroke:none;stroke-width:1.000000"><tspan y="102.000000" x="612.062500">Next PC</tspan></text>
<text
			y="17.617188"
			x="280.140625"
			style="font-size:16.000000px;text-anchor:middle;fill:#000000;stroke:none;stroke-width:1.000000"><tspan y="17.617188" x="280.140625">Instruction Decode</tspan>
			<tspan y="33.617188" x="280.140625">Register Fetch</tspan></text>
<text
			y="18.921875"
			x="446.304688"
			style="font-size:16.000000px;text-anchor:middle;fill:#000000;stroke:none;stroke-width:1.000000"><tspan y="18.921875" x="446.304688">Execute</tspan>
			<tspan y="34.921875" x="446.304688">Address Calc.</tspan></text>
<text
			y="25.000000"
			x="753.468750"
			style="font-size:16.000000px;text-anchor:middle;fill:#000000;stroke:none;stroke-width:1.000000"><tspan y="25.000000" x="753.468750">Write Back</tspan></text>
<text
			y="25.371094"
			x="610.109375"
			style="font-size:16.000000px;text-anchor:middle;fill:#000000;stroke:none;stroke-width:1.000000"><tspan y="25.371094" x="610.109375">Memory Access</tspan></text>
<path
		d="M 693,5 L 693,69.999951"
		style="fill:none;stroke:#000000;stroke-width:2.000000" />
<path
		d="M 528,5 L 528,69.999951"
		style="fill:none;stroke:#000000;stroke-width:2.000000" />
<path
		d="M 363,5 L 363,69.999951"
		style="fill:none;stroke:#000000;stroke-width:2.000000" />
<path
		d="M 198,5 L 198,69.999951"
		style="fill:none;stroke:#000000;stroke-width:2.000000" />
<text
			y="65.000000"
			x="99.058594"
			style="font-size:20.000000px;text-anchor:start;fill:#000000;stroke:none;stroke-width:1.000000"><tspan y="65.000000" x="99.058594">IF</tspan></text>
<text
			y="65.000000"
			x="269.459961"
			style="font-size:20.000000px;text-anchor:start;fill:#000000;stroke:none;stroke-width:1.000000"><tspan y="65.000000" x="269.459961">ID</tspan></text>
<text
			y="65.000000"
			x="431.652344"
			style="font-size:20.000000px;text-anchor:start;fill:#000000;stroke:none;stroke-width:1.000000"><tspan y="65.000000" x="431.652344">EX</tspan></text>
<text
			y="65.000000"
			x="586.906250"
			style="font-size:20.000000px;text-anchor:start;fill:#000000;stroke:none;stroke-width:1.000000"><tspan y="65.000000" x="586.906250">MEM</tspan></text>
<text
			y="65.000000"
			x="737.335938"
			style="font-size:20.000000px;text-anchor:start;fill:#000000;stroke:none;stroke-width:1.000000"><tspan y="65.000000" x="737.335938">WB</tspan></text>
<path
		d="M 555,270 L 680,270"
		style="fill:none;stroke:#000000;stroke-width:2.000000" />
<path style="fill:#000000;fill-opacity:1;stroke:#000000;stroke-width:2" d="M 235,82.5 A 2.5,2.5 0 1 1 230,82.5 A 2.5,2.5 0 1 1 235,82.5 z" transform="translate(322.5,187.5)" />
<path
		d="M 225,340 L 225,425 L 350,425"
		style="fill:none;stroke:#000000;stroke-width:2.000000" />
<path
		d="M 515,425 L 375,425"
		style="fill:#000000;stroke:#000000;stroke-width:2.000000" />
<path
		d="M 680,425 L 540,425"
		style="fill:#000000;stroke:#000000;stroke-width:2.000000" />
<use x="0.000000" y="0.000000" xlink:href="#path2444" transform="translate(401.154327,192.239685)" width="600.000000" height="500.000000" /><use x="0.000000" y="0.000000" xlink:href="#path2444" transform="translate(566.154358,192.239685)" width="600.000000" height="500.000000" /><use x="0.000000" y="0.000000" xlink:href="#path2444" transform="translate(731.154358,192.239685)" width="600.000000" height="500.000000" /><path style="opacity:1;fill:#000000;stroke:#000000;stroke-width:2" d="M 235,82.5 A 2.5,2.5 0 1 1 230,82.5 A 2.5,2.5 0 1 1 235,82.5 z" transform="translate(-7.5,257.5)" />
	</g>
</svg>