<?xml version="1.0" encoding="UTF-8" standalone="no"?>
<svg xmlns="http://www.w3.org/2000/svg" xmlns:xlink="http://www.w3.org/1999/xlink" width="800" height="500">
	<g>
		<g transform="translate(0,75)">
			<rect
				y="175"
				x="25"
				height="100"
				width="25"
				style="fill:#ffffff;stroke:#000000;stroke-width:2" />
			<path
				d="M 25,275 L 37.5,255 L 50,275"
				style="fill:none;stroke:#000000;stroke-width:2" />
			<text
				y="229.36816"
				x="29.425781"
				style="font-size:12px;fill:#000000;stroke:none;stroke-width:1px">
				<tspan
					y="229.36816"
					x="29.425781">PC
				</tspan>
			</text>
		</g>

		<g transform="translate(-15,75)">
			<rect
				y="175"
				x="100"
				height="100"
				width="75"
				style="fill:#ffffff;stroke:#000000;stroke-width:2" />
			<text
				y="228.12598"
				x="112.67969"
				style="font-size:12px;=fill:#ffffff;stroke:none;stroke-width:1px">
				<tspan
					y="228.12598"
					x="112.67969">Memory
				</tspan>
			</text>
		</g>

		<path
			style="fill:#ffffff;stroke:#000000;stroke-width:2"
			d="M 100,100 L 130,115 L 130,155 L 100,170 L 100,140 L 110,135 L 100,130 L 100,100 z"
		/>

		<text
			style="font-size:12px;fill:none;stroke:#000000;stroke-width:1px"
			x="284.5"
			y="90">
			<tspan
				x="284.5"
				y="90"></tspan>
		</text>

		<text
			style="font-size:12px;text-anchor:middle;fill:#000000;stroke:none;stroke-width:1px"
			x="132.88281"
			y="-116.75"
			transform="matrix(0,1,-1,0,0,0)"><tspan
			x="132.88281"
			y="-116.75">Adder</tspan>
		</text>
		
		<rect
			style="fill:#ffffff;stroke:#000000;stroke-width:1.99999988"
			width="59.716309"
			height="94.900002"
			x="265"
			y="155.10001" />
		
		<text
			style="font-size:12px;text-anchor:middle;fill:#000000;stroke:none;stroke-width:1px"
			x="294.27515"
			y="196.97363">
			<tspan
				x="294.27515"
				y="196.97363">Register</tspan>
			<tspan
				x="294.27515"
				y="211.97363">File</tspan>
		</text>

		<text
			style="font-size:12px;text-anchor:start;fill:none;stroke:#000000;stroke-width:1px"
			x="334.125"
			y="235">
			<tspan
				x="334.125"
				y="235"></tspan>
		</text>

		<g transform="translate(-39.747,80)">
			<path transform="matrix(1.0016064,0,0,1,-20.52208,22.5)"
			d="M 375,237.5 A 25,37.5 0 1 1 325,237.5 A 25,37.5 0 1 1 375,237.5 z"
			style="fill:#ffffff;stroke:#000000;stroke-width:1.99839556" />
			<text
				y="256.97363"
				x="329.99622"
				style="font-size:12px;text-anchor:middle;fill:#000000;stroke:none;stroke-width:1px">
				<tspan
					y="256.97363"
					x="329.99622">Sign</tspan>
				<tspan
					y="271.973633"
					x="329.99622">Extend</tspan>
			</text>
		</g>

		<path
			d="M 160,300 L 185,300"
			style="fill:#000000;fill-opacity:1;stroke:#000000;stroke-width:2" />
		<path
			style="opacity:1;fill:none;fill-opacity:1;stroke:#000000;stroke-width:2;"
			d="M 50,300 L 85,300"/>
		<path
			style="opacity:1;fill:none;fill-opacity:1;stroke:#000000;stroke-width:2"
			d="M 60,300 L 60,155 L 95,155"/>
		<path
			style="opacity:1;fill:#000000;fill-opacity:1;stroke:#000000;stroke-width:2.00000024"
	       d="M -59.154329,230.76032 L -59.154329,234.76032 L -51.154329,232.76032 L -59.154329,230.76032"
	       id="path2444" />
		<use
			x="0"
			y="0"
			xlink:href="#path2444"
			transform="translate(136.15433,67.23968)"
			width="600"
			height="500" />
		<use
			x="0"
			y="0"
			xlink:href="#path2444"
			transform="translate(151.15433,-77.76032)"
			width="600"
			height="500" />
		
		<g transform="translate(160,-75)">
			<rect
				y="175"
				x="25"
				height="350.00015"
				width="25"
				style="fill:#ffffff;fill-opacity:1;stroke:#000000;stroke-width:1.99999976" />
			<path
				d="M 25,525 L 37.5,505 L 50,525"
				style="fill:none;fill-opacity:0.11764706;stroke:#000000;stroke-width:2" />
			<text
				y="-33.682617"
				x="349.76276"
				style="font-size:12px;text-anchor:middle;fill:#000000;fill-opacity:1;stroke:none;stroke-width:1px"
				transform="matrix(0,1,-1,0,0,0)"><tspan
				y="-33.682617"
				x="349.76276">IF / ID</tspan>
			</text>
		</g>

		<use
			x="0"
			y="0"
			xlink:href="#path2444"
			transform="translate(236.15433,67.23968)"
			width="600"
			height="500" />
		<path
			style="fill:#000000;fill-opacity:1;stroke:#000000;stroke-width:2"
			d="M 210,300 L 225,300"/>
		<path
			style="opacity:1;fill:none;fill-opacity:1;stroke:#000000;stroke-width:2"
			d="M 260,165 L 225,165 L 225,339.99999 L 260,339.99999"/>
		<use
			x="0"
			y="0"
			xlink:href="#path2444"
			transform="translate(316.48765,107.23968)"
			width="600"
			height="500" />
		<use
			x="0"
			y="0"
			xlink:href="#path2444"
			transform="translate(316.15433,-67.76032)"
			width="600"
			height="500" />
		<path
			style="fill:none;stroke:#000000;stroke-width:2"
			d="M 224.98369,190 L 259.98369,190"/>
		<use
			x="0"
			y="0"
			xlink:href="#path2444"
			transform="translate(316.15433,-42.76032)"
			width="600"
			height="500" />
		<g transform="translate(325,-75)">
			<rect
				y="175"
				x="25"
				height="350.00015"
				width="25"
				style="fill:#ffffff;stroke:#000000;stroke-width:1.99999976" />
			<path
				d="M 25,525 L 37.5,505 L 50,525"
				style="fill:none;fill-opacity:0.11764706;stroke:#000000;stroke-width:2" />
			<text
				y="-33.682617"
				x="349.60162"
				style="font-size:12px;text-align:center;text-anchor:middle;fill:#000000;stroke:none;stroke-width:1px"
				transform="matrix(0,1,-1,0,0,0)"><tspan
				y="-33.682617"
				x="349.60162">ID / EX</tspan>
			</text>
		</g>

		<use
			x="0"
			y="0"
			xlink:href="#path2444"
			transform="translate(276.15433,67.23968)"
			width="600"
			height="500" />

		<text
			style="font-size:12px;font-style:normal;text-anchor:start;fill:#000000;fill-opacity:1;stroke:none;stroke-width:1px"
			x="320"
			y="335"><tspan
			x="320"
			y="335">Imm</tspan>
		</text>

		<path
			style="fill:none;fill-opacity:1;stroke:#000000;stroke-width:2"
			d="M 324.57143,200 L 335,200 L 335,280 L 350,280"/>

		<use
			x="0"
			y="0"
			xlink:href="#path2444"
			transform="translate(401.15433,47.23968)"
			width="600"
			height="500" />

		<text
			style="font-size:12px;text-align:start;text-anchor:start;fill:#000000;stroke:none;stroke-width:1px"
			x="230"
			y="160"><tspan
			x="230"
			y="160">RS1</tspan>
		</text>

		<text
			style="font-size:12px;text-anchor:start;fill:#000000;fill-opacity:1;stroke:none;stroke-width:1px;"
			x="230"
			y="185"><tspan
			x="230"
			y="185">RS2</tspan>
		</text>

		<path
			style="fill:#000000;fill-opacity:1;stroke:#000000;stroke-width:2"
			d="M 235,82.5 A 2.5,2.5 0 1 1 230,82.5 A 2.5,2.5 0 1 1 235,82.5 z"
			transform="translate(-7.500002,107.5)" />

		<path
			style="fill:#000000;fill-opacity:1;stroke:#000000;stroke-width:2"
			d="M 235,82.5 A 2.5,2.5 0 1 1 230,82.5 A 2.5,2.5 0 1 1 235,82.5 z"
			transform="translate(-172.5,217.5)" />

		<path
			style="fill:#000000;stroke:#000000;stroke-width:2.00000024"
			d="M 315,340 L 345,340"/>

		<use
			x="0"
			y="0"
			xlink:href="#path2444"
			transform="translate(401.48765,107.23968)"
			width="600"
			height="500" />
		
		<g	transform="translate(-20,70)">
			<rect
				y="110"
				x="440"
				height="30"
				width="40.666668"
				style="fill:#ffffff;fill-rule:evenodd;stroke:#000000;stroke-width:2;stroke-linecap:butt;stroke-linejoin:miter;stroke-opacity:1" />
			<text
				y="129.36816"
				x="460.48569"
				style="font-size:12px;text-anchor:middle;fill:#000000;fill-opacity:1;stroke:none;stroke-width:1px"><tspan
				y="129.36816"
				x="460.48569">Zero?</tspan></text>
		</g>

		<path
			style="fill:#ffffff;fill-opacity:1;stroke:#000000;stroke-width:2"
			d="M 445,280 L 485,300 L 485,350 L 445,370 L 445,340 L 455,335 L 455,315 L 445,310 L 445,280 z"/>

		<text
			style="font-size:12px;text-anchor:middle;fill:#000000;fill-opacity:1;stroke:none;stroke-width:1px"
			x="470.33594"
			y="329.28906">
			<tspan
			x="470.33594"
			y="329.28906">ALU</tspan>'
		</text>
		
		<g transform="translate(-59.250002,106)">
			<path
				d="M 469.25,164 L 469.25,214 L 489.25,204 L 489.25,174 L 469.25,164 z"
				style="fill:#ffffff;stroke:#000000;stroke-width:2" />
			<text
				transform="matrix(0,1,-1,0,0,0)"
				y="-475"
				x="188.6875"
				style="font-size:12px;text-align:center;text-anchor:middle;fill:#000000;"><tspan
				y="-475"
				x="188.6875">MUX</tspan>
			</text>
		</g>

		<path
			style="fill:none;stroke:#000000;stroke-width:1.99999988"
			d="M 430.4,295 L 445.4,295"/>
		<use
			x="0"
			y="0"
			xlink:href="#path2444"
			transform="translate(496.15433,62.23968)"
			width="600"
			height="500" />
		
		<g transform="translate(490,-70.00015)">
			<rect
				y="175"
				x="25"
				height="350.00015"
				width="25"
				style="fill:#ffffff;fill-opacity:1;stroke:#000000;stroke-width:1.99999976" />
			<path
				d="M 25,525 L 37.5,505 L 50,525"
				style="fill:none;fill-opacity:0.11764706;stroke:#000000;stroke-width:2" />
			<text
				y="-33.682617"
				x="350.00006"
				style="font-size:12px;text-anchor:middle;fill:#000000;fill-opacity:1;stroke:none;stroke-width:1px"
				transform="matrix(0,1,-1,0,0,0)"><tspan
				y="-33.682617"
				x="350.00006">EX / MEM</tspan>
			</text>
		</g>

		<path
			style="fill:none;fill-opacity:1;stroke:#000000;stroke-width:2"
			d="M 485,325 L 510,325"/>
		<use
			x="0"
			y="0"
			xlink:href="#path2444"
			transform="translate(566.15433,92.23968)"
			width="600"
			height="500" />
		
		<g transform="translate(475,125)">
			<rect
				y="175"
				x="100"
				height="100"
				width="75"
				id="rect2664"
				style="fill:#ffffff;fill-rule:evenodd;stroke:#000000;stroke-width:2;stroke-linecap:butt;stroke-linejoin:miter;stroke-opacity:1" />
			<text
				y="228.12598"
				x="112.67969"
				style="font-size:12px;text-anchor:start;fill:#000000;stroke:none;stroke-width:1px"><tspan
				y="228.12598"
				x="112.67969">Memory</tspan>
			</text>
		</g>

		<g transform="translate(265.75,121)">
			<path
				d="M 469.25,164 L 469.25,214 L 489.25,204 L 489.25,174 L 469.25,164 z"
				style="fill:#ffffff;stroke:#000000;stroke-width:2" />
			<text
				transform="matrix(0,1,-1,0,0,0)"
				y="-475"
				x="188.6875"
				style="font-size:12px;font-style:normal;text-anchor:middle;fill:#000000"><tspan
				y="-475"
				x="188.6875">MUX</tspan></text>
		</g>

		<g transform="translate(655,-75.00015)">
			<rect
				y="175"
				x="25"
				height="350.00015"
				width="25"
				style="fill:#ffffff;fill-opacity:1;stroke:#000000;stroke-width:1.99999976" />
			<path
				d="M 25,525 L 37.5,505 L 50,525"
				style="fill:none;fill-opacity:0.11764706;stroke:#000000;stroke-width:2" />
			<text
				y="-33.682617"
				x="350.00006"
				style="font-size:12px;text-anchor:middle;fill:#000000;stroke:none;stroke-width:1px"
				transform="matrix(0,1,-1,0,0,0)"><tspan
				y="-33.682617"
				x="350.00006">MEM / WB</tspan></text>
		</g>

		<g transform="translate(130.75,-39)">
			<path
				d="M 469.25,164 L 469.25,214 L 489.25,204 L 489.25,174 L 469.25,164 z"
				style="opacity:1;fill:#ffffff;fill-opacity:1;stroke:#000000;stroke-width:2" />
			<text
				transform="matrix(0,1,-1,0,0,0)"
				y="-475"
				x="188.6875"
				style="font-size:12px;text-anchor:middle;fill:#000000"><tspan
				y="-475"
				x="188.6875">MUX</tspan>
			</text>
		</g>

		<use
			x="0"
			y="0"
			xlink:href="#path2444"
			id="use2698"
			transform="translate(461.15433,47.239684)"
			width="600"
			height="500" />
		<path
			style="opacity:1;fill:none;fill-opacity:1;stroke:#000000;stroke-width:2"
			d="M 375,280 L 405,280"/>
		<use
				x="0"
				y="0"
				xlink:href="#path2444"
				transform="translate(461.15433,77.23968)"
				width="600"
				height="500" />
		<path
			style="opacity:1;fill:none;fill-opacity:1;stroke:#000000;stroke-width:2"
			d="M 210,110 L 350,110" />
		<path
			style="opacity:1;fill:none;fill-opacity:1;stroke:#000000;stroke-width:2"
			d="M 374.9,110 L 509.9,110" />
		<use
			x="0"
			y="0"
			xlink:href="#path2444"
			transform="translate(566.15433,-122.76032)"
			width="600"
			height="500" />
		<path
			style="opacity:1;fill:none;fill-opacity:1;stroke:#000000;stroke-width:2"
			d="M 405,310 L 385,310 L 385,110"/>
		<path
			style="opacity:1;fill:none;fill-opacity:1;stroke:#000000;stroke-width:2.00000024"
			d="M 395,280.00001 L 395,194.97602 L 415,195" />
		<path
			style="opacity:1;fill:#000000;fill-opacity:1;stroke:#000000;stroke-width:2"
			d="M 235,82.5 A 2.5,2.5 0 1 1 230,82.5 A 2.5,2.5 0 1 1 235,82.5 z"
			transform="translate(162.5,197.5)" />
		<path
			style="opacity:1;fill:#000000;fill-opacity:1;stroke:#000000;stroke-width:2"
			d="M 235,82.5 A 2.5,2.5 0 1 1 230,82.5 A 2.5,2.5 0 1 1 235,82.5 z"
			transform="translate(152.5,27.5)" />
		<use
			x="0"
			y="0"
			xlink:href="#path2444"
			transform="translate(401.15433,-122.76032)"
			width="600"
			height="500" />

		<g transform="translate(-59.250006,166)">
			<path
				d="M 469.25,164 L 469.25,214 L 489.25,204 L 489.25,174 L 469.25,164 z"
				style="opacity:1;fill:#ffffff;fill-opacity:1;stroke:#000000;stroke-width:2" />
			<text
				transform="matrix(0,1,-1,0,0,0)"
				y="-475"
				x="188.6875"
				style="font-size:12px;text-anchor:middle;fill:#000000"><tspan
				y="-475"
				x="188.6875">MUX</tspan>
			</text>
		</g>

		<path
			style="opacity:1;fill:none;fill-opacity:1;stroke:#000000;stroke-width:1.99999988"
			d="M 430.4,355 L 445.4,355" />
		<use
			x="0"
			y="0"
			xlink:href="#path2444"
			transform="translate(496.15433,122.23968)"
			width="600"
			height="500" />
		<path
			style="opacity:1;fill:none;fill-opacity:1;stroke:#000000;stroke-width:2"
			d="M 410,370 L 375,370"/>
		<path
			style="opacity:1;fill:none;fill-opacity:1;stroke:#000000;stroke-width:2.00000024"
			d="M 390,369.99999 L 390,400.04543 L 495,400 L 495,375 L 515,375" />
		<path
			style="opacity:1;fill:none;fill-opacity:1;stroke:#000000;stroke-width:2"
			d="M 375,340 L 405,340" />
		<use
			x="0"
			y="0"
			xlink:href="#path2444"
			transform="translate(461.15433,107.23968)"
			width="600"
			height="500" />
		<use
			x="0"
			y="0"
			xlink:href="#path2444"
			transform="translate(461.15433,137.23968)"
			width="600"
			height="500" />
		<path
			style="opacity:1;fill:#000000;fill-opacity:1;stroke:#000000;stroke-width:2"
			d="M 235,82.5 A 2.5,2.5 0 1 1 230,82.5 A 2.5,2.5 0 1 1 235,82.5 z"
			transform="translate(157.5,287.5)" />
		<path
			style="opacity:1;fill:none;fill-opacity:1;stroke:#000000;stroke-width:2"
			d="M 459.42859,195 L 514.42859,195"/>
		<use
			x="0"
			y="0"
			xlink:href="#path2444"
			transform="translate(566.15433,-37.76032)"
			width="600"
			height="500" />
		<use
			x="0"
			y="0"
			xlink:href="#path2444"
			transform="translate(471.15433,-37.76032)"
			width="600"
			height="500" />
		<path
			style="opacity:1;fill:none;fill-opacity:1;stroke:#000000;stroke-width:2"
			d="M 540,325 L 570,325" />
		<use
			x="0"
			y="0"
			xlink:href="#path2444"
			transform="translate(626.15433,92.239683)"
			width="600"
			height="500" />
		<path
			style="opacity:1;fill:none;fill-opacity:1;stroke:#000000;stroke-width:2"
			d="M 540,375 L 550,375 L 570,375" />
		<use
			x="0"
			y="0"
			xlink:href="#path2444"
			transform="translate(626.15433,142.23968)"
			width="600"
			height="500" />
		<path
			style="opacity:1;fill:none;fill-opacity:1;stroke:#000000;stroke-width:2"
			d="M 600,165 L 555,165 L 555,325"/>
		<path
			style="opacity:1;fill:#000000;fill-opacity:1;stroke:#000000;stroke-width:2"
			d="M 235,82.5 A 2.5,2.5 0 1 1 230,82.5 A 2.5,2.5 0 1 1 235,82.5 z"
			transform="translate(322.5,242.5)" />
		<use
			x="0"
			y="0"
			xlink:href="#path2444"
			transform="translate(731.15433,37.23968)"
			width="600"
			height="500" />
		<use
			x="0"
			y="0"
			xlink:href="#path2444"
			transform="translate(651.15433,-67.76032)"
			width="600"
			height="500" />
		<path
			style="opacity:1;fill:none;fill-opacity:1;stroke:#000000;stroke-width:2"
			d="M 540,110 L 560,110 L 560,135 L 600,135" />
		<use
			x="0"
			y="0"
			xlink:href="#path2444"
			transform="translate(651.15433,-97.76032)"
			width="600"
			height="500" />
		<path
			style="opacity:1;fill:none;fill-opacity:1;stroke:#000000;stroke-width:2"
			d="M 650.44,350 L 675.24,350" />
		<use
			x="0"
			y="0"
			xlink:href="#path2444"
			transform="translate(731.15433,117.23968)"
			width="600"
			height="500" />
		<path
			style="opacity:1;fill:none;fill-opacity:1;stroke:#000000;stroke-width:2"
			d="M 705,270 L 720,270 L 720,295 L 735,295" />
		<path
			style="opacity:1;fill:none;fill-opacity:1;stroke:#000000;stroke-width:2"
			d="M 735,325 L 720,325 L 720,350 L 705,350"/>
		<use
			x="0"
			y="0"
			xlink:href="#path2444"
			transform="translate(786.15433,92.23968)"
			width="600"
			height="500" />
		<use
			x="0"
			y="0"
			xlink:href="#path2444"
			transform="translate(786.15433,62.23968)"
			width="600"
			height="500" />
		<use
			x="0"
			y="0"
			xlink:href="#path2444"
			transform="translate(566.15433,142.23968)"
			width="600"
			height="500" />
		<path
			style="opacity:1;fill:none;fill-opacity:1;stroke:#000000;stroke-width:2"
			d="M 540,195 L 610,195 L 610,170"/>
		<use
			x="0"
			y="0"
			xlink:href="#path2444"
			transform="matrix(0,-1,1,0,377.23968,118.84567)"
			width="600"
			height="500" />
		<path
			style="opacity:1;fill:none;fill-opacity:1;stroke:#000000;stroke-width:2"
			d="M 755,310 L 780,310 L 780,475 L 235,475 L 235,215 L 265,215" />
		<path
			style="opacity:1;fill:none;fill-opacity:1;stroke:#000000;stroke-width:2"
			d="M 265,240 L 245,240 L 245,460 L 725,460 L 725,425 L 705,425" />
		<use
			x="0"
			y="0"
			xlink:href="#path2444"
			transform="translate(316.15433,-17.76032)"
			width="600"
			height="500" />
		<use
			x="0"
			y="0"
			xlink:href="#path2444"
			transform="translate(316.15433,7.23968)"
			width="600"
			height="500" />
		<path
			style="opacity:1;fill:none;fill-opacity:1;stroke:#000000;stroke-width:2"
			d="M 620,150 L 640,150 L 640,90 L 10,90 L 10,300 L 25,300" />
		<use
			x="0"
			y="0"
			xlink:href="#path2444"
			transform="translate(76.154329,67.23968)"
			width="600"
			height="500" />
		<path
			style="opacity:1;fill:none;fill-opacity:1;stroke:#000000;stroke-width:2"
			d="M 130,135 L 155,135 L 155,110 L 185,110" />
		<use
			x="0"
			y="0"
			xlink:href="#path2444"
			transform="translate(236.15433,-122.76032)"
			width="600"
			height="500" />
		<text
			style="font-size:12px;text-anchor:middle;fill:#000000;fill-opacity:1;stroke:none;stroke-width:1px"
			x="278.05078"
			y="123.5"><tspan
			x="278.05078"
			y="123.5">Next SEQ PC</tspan></text>
		<text
			style="font-size:12px;text-anchor:middle;fill:#000000;fill-opacity:1;stroke:none;stroke-width:1px"
			x="443.05078"
			y="123.5"><tspan
			x="443.05078"
			y="123.5">Next SEQ PC</tspan></text>
		<text
			style="font-size:12px;text-anchor:middle;fill:#000000;fill-opacity:1;stroke:none;stroke-width:1px"
			x="741.28516"
			y="490"><tspan
			x="741.28516"
			y="490">WB Data</tspan></text>
		<text
			style="font-size:12px;fill:#000000;fill-opacity:1;stroke:none;stroke-width:1px"
			x="465"
			y="180"><tspan
			x="465"
			y="180">Branch</tspan><tspan
			x="465"
			y="192">taken</tspan>
		</text>

		<text
			style="font-size:12px;text-anchor:start;fill:#000000;fill-opacity:1;stroke:none;stroke-width:1px"
			x="165"
			y="295"><tspan
			x="165"
			y="295">IR</tspan></text>
		<text
			style="font-size:16px;text-anchor:middle;fill:#000000;fill-opacity:1;stroke:none;stroke-width:1px"
			x="108.0625"
			y="27.167969"><tspan
			x="108.0625"
			y="27.167969">Instruction Fetch</tspan></text>
		<text
			style="font-size:12px;text-anchor:middle;fill:#000000;fill-opacity:1;stroke:none;stroke-width:1px"
			x="612.0625"
			y="102"><tspan
			x="612.0625"
			y="102">Next PC</tspan></text>
		<text
			style="font-size:16px;text-anchor:middle;fill:#000000;fill-opacity:1;stroke:none;stroke-width:1px"
			x="280.14063"
			y="17.617188"><tspan
			x="280.14063"
			y="17.617188">Instruction Decode</tspan><tspan
			x="280.14063"
			y="33.617188">Register Fetch</tspan></text>
		<text
			style="font-size:16px;text-anchor:middle;fill:#000000;fill-opacity:1;stroke:none;stroke-width:1px"
			x="446.30469"
			y="18.921875"><tspan
			x="446.30469"
			y="18.921875">Execute</tspan><tspan
			x="446.30469"
			y="34.921875">Address Calc.</tspan></text>
		<text
			style="font-size:16px;text-anchor:middle;fill:#000000;fill-opacity:1;stroke:none;stroke-width:1px"
			x="610.10938"
			y="25.371094"><tspan
			x="610.10938"
			y="25.371094">Memory Access</tspan></text>
		<text
			style="font-size:16px;text-align:center;text-anchor:middle;fill:#000000;stroke:none;stroke-width:1px"
			x="753.46875"
			y="25"><tspan
			x="753.46875"
			y="25">Write Back</tspan></text>
		<path
			style="opacity:1;fill:#000000;fill-opacity:1;stroke:#cc0000;stroke-width:1.99999988"
			d="M 693,5 L 693,69.999951" />
		<path
			style="fill:#000000;fill-opacity:1;stroke:#cc0000;stroke-width:1.99999988"
			d="M 528,5 L 528,69.999951"/>
		<path
			style="fill:#000000;stroke:#cc0000;stroke-width:1.99999988"
			d="M 363,5 L 363,69.999951" />
		<path
			style="fill:#000000;stroke:#cc0000;stroke-width:1.99999988"
			d="M 198,5 L 198,69.999951"/>
		<text
			style="font-size:20px;text-anchor:start;fill:#000000;fill-opacity:1;stroke:none;stroke-width:1px"
			x="99.058594"
			y="65"><tspan
			x="99.058594"
			y="65">IF</tspan></text>
		<text
			style="font-size:20px;text-anchor:start;fill:#000000;stroke:none;stroke-width:1px"
			x="269.45996"
			y="65"><tspan
			x="269.45996"
			y="65">ID</tspan></text>
		<text
			style="font-size:20px;font-style:normal;fill:#000000;stroke:none;stroke-width:1px"
			x="431.65234"
			y="65"><tspan
			x="431.65234"
			y="65">EX</tspan>
		</text>
		<text
			style="font-size:20px;text-anchor:start;fill:#000000;stroke:none;stroke-width:1px"
			x="586.90625"
			y="65"><tspan
			x="586.90625"
			y="65">MEM</tspan>
		</text>
		<text
			style="font-size:20px;text-anchor:start;fill:#000000;fill-opacity:1;stroke:none;stroke-width:1px"
			x="737.33594"
			y="65"><tspan
				x="737.33594"
				y="65">WB</tspan>
		</text>
		<path
			style="fill:#000000;fill-opacity:1;stroke:#000000;stroke-width:2"
			d="M 555,270 L 680,270"/>
		<path
			style="fill:#000000;fill-opacity:1;stroke:#000000;stroke-width:2"
			d="M 235,82.5 A 2.5,2.5 0 1 1 230,82.5 A 2.5,2.5 0 1 1 235,82.5 z"
			transform="translate(322.5,187.5)" />
		<path
			style="fill:#000000;stroke:#000000;stroke-width:2"
			d="M 680,425 L 540,425"/>
		<path
			style="fill:#000000;stroke:#000000;stroke-width:2"
			d="M 515,425 L 375,425" />
		<path
			style="fill:none;fill-opacity:1;stroke:#000000;stroke-width:2"
			d="M 225,340 L 225,425 L 350,425"/>
		<use
			x="0"
			y="0"
			xlink:href="#path2444"
			transform="translate(401.15433,192.23968)"
			width="600"
			height="500" />
		<use
			x="0"
			y="0"
			xlink:href="#path2444"
			transform="translate(566.15433,192.23968)"
			width="600"
			height="500" />
		<use
			x="0"
			y="0"
			xlink:href="#path2444"
			transform="translate(731.15433,192.23968)"
			width="600"
			height="500" />
		<path
			style="opacity:1;fill:#000000;stroke:#000000;stroke-width:2"
			d="M 235,82.5 A 2.5,2.5 0 1 1 230,82.5 A 2.5,2.5 0 1 1 235,82.5 z"
			transform="translate(-7.5,257.5)" />
	</g>
</svg>